<svg xmlns="http://www.w3.org/2000/svg" xmlns:xlink="http://www.w3.org/1999/xlink" width="178.645" height="32.023" viewBox="0 0 178.645 32.023">
  <defs>
    <linearGradient id="linear-gradient" x1="0.5" x2="0.5" y2="1" gradientUnits="objectBoundingBox">
      <stop offset="0" stop-color="#00b8f1"/>
      <stop offset="0.016" stop-color="#00b5ef"/>
      <stop offset="0.308" stop-color="#0d90d8"/>
      <stop offset="0.578" stop-color="#1675c8"/>
      <stop offset="0.817" stop-color="#1c64be"/>
      <stop offset="1" stop-color="#1e5fbb"/>
    </linearGradient>
  </defs>
  <g id="Groupe_2768" data-name="Groupe 2768" transform="translate(-36.047 -36.033)">
    <path id="Tracé_1" data-name="Tracé 1" d="M39.03,70.932V62.894H36.047V60.57h8.765v2.324H41.83v8.037ZM46.018,60.57h2.8v3.851h3.444V60.57h2.8V70.932h-2.8V66.745H48.818v4.187h-2.8ZM56.863,70.932V60.57h7.393v2.324H59.663v1.68h3.277v2.184H59.663v1.918h4.831v2.254Zm13.038,0V60.57h4.355c1.723,0,3.767.266,3.767,2.548a2.228,2.228,0,0,1-1.96,2.367v.028a2.319,2.319,0,0,1,2.212,2.548c0,2.254-2.1,2.87-3.85,2.87ZM72.645,64.7h1.33c1.008,0,1.386-.392,1.386-.994s-.378-.994-1.358-.994H72.645Zm0,4.131h1.4c1.05,0,1.5-.406,1.5-1.121s-.462-1.078-1.526-1.078H72.645Zm7,2.1V60.57h7.393v2.324H82.449v1.68h3.277v2.184H82.449v1.918h4.831v2.254Zm8.39-2.282,2.073-1.288a3.206,3.206,0,0,0,2.716,1.568c.854,0,1.5-.252,1.5-.9s-.826-.91-1.848-1.162c-1.694-.434-3.949-.868-3.949-3.22,0-2.114,1.6-3.277,3.949-3.277a5.327,5.327,0,0,1,4.341,2.03l-1.876,1.54a3.538,3.538,0,0,0-2.478-1.3c-.8,0-1.2.266-1.2.757,0,.686.812.938,1.835,1.19,1.694.406,3.962.924,3.962,3.249,0,1.652-1.162,3.291-4.355,3.291A5.109,5.109,0,0,1,88.038,68.65Zm12.492,2.282V62.894H97.547V60.57h8.765v2.324H103.33v8.037Zm10.573,0V60.57h4.047c2.66,0,4.284.882,4.284,3.374a2.831,2.831,0,0,1-2.044,3.025l2.2,3.962H116.62l-2-3.6h-.77v3.6Zm2.744-5.727h1.2c1.148,0,1.652-.322,1.652-1.191s-.5-1.176-1.652-1.176h-1.2Zm6.835,1.568v-6.2h2.8v6.189c0,1.429.462,2.073,1.582,2.073s1.568-.644,1.568-2.073V60.57h2.744v6.2c0,2.744-1.316,4.313-4.34,4.313S120.682,69.517,120.682,66.773ZM131.1,70.932V60.57h2.758l3.8,5.81h.028V60.57h2.562V70.932h-2.59l-3.963-5.8h-.028v5.8Z" transform="translate(0 -13.515)"/>
    <g id="Groupe_3" data-name="Groupe 3" transform="translate(149.96 36.034)">
      <g id="Groupe_2" data-name="Groupe 2">
        <g id="Groupe_1" data-name="Groupe 1">
          <path id="Tracé_2" data-name="Tracé 2" d="M292.169,68.056h32.715L356.9,36.034H292.169V68.056" transform="translate(-292.169 -36.034)" fill-rule="evenodd" fill="url(#linear-gradient)"/>
        </g>
        <path id="Tracé_3" data-name="Tracé 3" d="M331.713,49.148l-6.372,0v15.15l-5.567-15.15h-5.519L309.5,61.815c-.506-3.2-3.811-4.3-6.411-5.125-1.716-.552-3.538-1.362-3.521-2.258.014-.736.977-1.419,2.885-1.316a10.419,10.419,0,0,1,4.663,1.257l2.214-3.855a17.232,17.232,0,0,0-7.218-1.708H302.1a8.765,8.765,0,0,0-6.373,2.327,5.375,5.375,0,0,0-1.525,3.717,4.989,4.989,0,0,0,2.188,4.448,14.9,14.9,0,0,0,4.333,1.982c1.769.548,3.213,1.024,3.2,2.041a1.5,1.5,0,0,1-.42.995,2.8,2.8,0,0,1-2.053.644,8.813,8.813,0,0,1-5.276-1.505L294.2,67.365a14.712,14.712,0,0,0,7.213,1.92l.331,0a8.7,8.7,0,0,0,5.483-1.839c.083-.066.157-.133.234-.2l-.64,1.707h5.789l.971-2.955a10.559,10.559,0,0,0,3.4.539,10.7,10.7,0,0,0,3.321-.51l.936,2.926h9.44V62.831h2.058c4.978,0,7.921-2.535,7.921-6.782C340.662,51.319,337.8,49.148,331.713,49.148ZM316.987,62.111a5.823,5.823,0,0,1-2.041-.357l2.019-6.372H317l1.985,6.39A6,6,0,0,1,316.987,62.111Zm15.1-3.661h-1.4V53.316h1.4c1.872,0,3.365.622,3.365,2.533,0,1.978-1.493,2.6-3.365,2.6" transform="translate(-293.298 -43.126)" fill="#fff" fill-rule="evenodd"/>
      </g>
      <path id="Tracé_4" data-name="Tracé 4" d="M382.65,100.716a1.682,1.682,0,1,1,1.687,1.733A1.68,1.68,0,0,1,382.65,100.716Zm1.687,2.077a2.072,2.072,0,1,0-2.106-2.077A2.069,2.069,0,0,0,384.338,102.793Zm-.439-1.913h.416l.627,1.033h.409l-.685-1.051a.621.621,0,0,0,.624-.66c0-.467-.28-.677-.842-.677h-.909v2.387h.36Zm0-.308v-.739h.494c.249,0,.516.052.516.35,0,.372-.272.39-.575.39Z" transform="translate(-342.176 -70.8)" fill="#1e5fbb"/>
    </g>
  </g>
</svg>
