<svg xmlns="http://www.w3.org/2000/svg" width="80.85" height="108.218" viewBox="0 0 80.85 108.218">
  <g id="Groupe_3391" data-name="Groupe 3391" transform="translate(0.424 0.425)">
    <path id="Tracé_7013" data-name="Tracé 7013" d="M154.317,414.668H76.794a1.239,1.239,0,0,1-1.238-1.238V308.539a1.239,1.239,0,0,1,1.238-1.238h77.523a1.239,1.239,0,0,1,1.238,1.238v104.89a1.239,1.239,0,0,1-1.238,1.238" transform="translate(-75.556 -307.3)" fill="#fff"/>
    <rect id="Rectangle_2201" data-name="Rectangle 2201" width="80" height="107.368" rx="1" transform="translate(0 0)" fill="none" stroke-dasharray="5.014 5.014" stroke-linecap="round" stroke-linejoin="round" stroke-width="0.85" stroke="#364052"/>
    <path id="Tracé_7014" data-name="Tracé 7014" d="M138.877,363.965H86.547a1.255,1.255,0,0,1-1.216-1.291v-1.807a1.255,1.255,0,0,1,1.216-1.291h52.331a1.255,1.255,0,0,1,1.216,1.291v1.807a1.255,1.255,0,0,1-1.216,1.291" transform="translate(-72.712 -294.951)" fill="#d5d6d7"/>
    <path id="Tracé_7015" data-name="Tracé 7015" d="M111.217,326.168v16.865a1.442,1.442,0,0,1-1.443,1.443h-2.6a1.442,1.442,0,0,1-1.443-1.443V326.168a1.443,1.443,0,0,1,1.443-1.443h2.6a1.443,1.443,0,0,1,1.443,1.443" transform="translate(-68.474 -303.343)" fill="#85b4e0"/>
    <path id="Tracé_7016" data-name="Tracé 7016" d="M138.877,374.164H86.547a1.255,1.255,0,0,1-1.216-1.291v-1.807a1.255,1.255,0,0,1,1.216-1.291h52.331a1.255,1.255,0,0,1,1.216,1.291v1.807a1.255,1.255,0,0,1-1.216,1.291" transform="translate(-72.712 -292.542)" fill="#d5d6d7"/>
    <path id="Tracé_7017" data-name="Tracé 7017" d="M138.877,383.514H86.547a1.255,1.255,0,0,1-1.216-1.291v-1.807a1.255,1.255,0,0,1,1.216-1.291h52.331a1.255,1.255,0,0,1,1.216,1.291v1.807a1.255,1.255,0,0,1-1.216,1.291" transform="translate(-72.712 -290.96)" fill="#d5d6d7"/>
    <path id="Tracé_7018" data-name="Tracé 7018" d="M111.217,347.018a2.743,2.743,0,1,1-2.743-2.743,2.743,2.743,0,0,1,2.743,2.743" transform="translate(-68.474 -298.587)" fill="#85b4e0"/>
  </g>
</svg>
