<svg xmlns="http://www.w3.org/2000/svg" xmlns:xlink="http://www.w3.org/1999/xlink" width="80.854" height="112.385" viewBox="0 0 80.854 112.385">
  <defs>
    <clipPath id="clip-path">
      <rect id="Rectangle_2121" data-name="Rectangle 2121" width="70.189" height="24.883" fill="none"/>
    </clipPath>
  </defs>
  <g id="Groupe_3285" data-name="Groupe 3285" transform="translate(0.427 0.001)">
    <path id="Tracé_1563" data-name="Tracé 1563" d="M389.147,162.44v53.312a1.111,1.111,0,0,1-1.111,1.111H310.258a1.111,1.111,0,0,1-1.111-1.111V162.44l39.35-28.408a1.115,1.115,0,0,1,1.3,0Z" transform="translate(-309.147 -104.907)" fill="#fff"/>
    <path id="Tracé_1564" data-name="Tracé 1564" d="M389.147,162.44v53.312a1.111,1.111,0,0,1-1.111,1.111H310.258a1.111,1.111,0,0,1-1.111-1.111V162.44l39.35-28.408a1.115,1.115,0,0,1,1.3,0Z" transform="translate(-309.147 -104.907)" fill="none" stroke="#364052" stroke-linecap="round" stroke-linejoin="round" stroke-width="0.855"/>
    <g id="Groupe_3284" data-name="Groupe 3284" transform="translate(4.321 86.515)">
      <g id="Groupe_3283" data-name="Groupe 3283" clip-path="url(#clip-path)">
        <path id="Tracé_1565" data-name="Tracé 1565" d="M382.657,203.077H312.468l35.072-24.883Z" transform="translate(-312.468 -178.193)" fill="#f1f2f3"/>
      </g>
    </g>
    <path id="Tracé_1566" data-name="Tracé 1566" d="M379.108,165.564l-32.48,23.6L314.5,165.842l31.841-23.067a1.111,1.111,0,0,1,1.3,0Z" transform="translate(-307.535 -102.354)" fill="#85b4e0"/>
    <path id="Tracé_1567" data-name="Tracé 1567" d="M309.147,155.852l38.811,28.7a1.111,1.111,0,0,0,1.3,0l39.3-28.451" transform="translate(-309.147 -98.364)" fill="none" stroke="#364052" stroke-linecap="round" stroke-linejoin="round" stroke-width="0.855"/>
    <path id="Tracé_1568" data-name="Tracé 1568" d="M312.4,126.72l9.371,8.436c.531.479,1.321-.306.787-.787l-9.373-8.435c-.529-.479-1.319.306-.786.786" transform="translate(-308.221 -107.349)" fill="#85b4e0"/>
    <path id="Tracé_1569" data-name="Tracé 1569" d="M340.47,112.134q-.088,8.622-.176,17.243a.557.557,0,0,0,1.112,0q.088-8.622.176-17.243a.557.557,0,0,0-1.112,0" transform="translate(-299.818 -111.597)" fill="#85b4e0"/>
    <path id="Tracé_1570" data-name="Tracé 1570" d="M367.094,129.615l-5.294,9.728c-.342.628.618,1.192.96.561q2.646-4.863,5.294-9.728c.342-.628-.618-1.19-.96-.561" transform="translate(-293.41 -106.285)" fill="#85b4e0"/>
  </g>
</svg>
