<svg version="1" xmlns="http://www.w3.org/2000/svg" width="28" height="28" viewBox="0 0 28 28"><path opacity=".3" fill="#485470" d="M19.795 19.076h-.729c-.044-.164-.301-.738-.301-.738l.495-.521c.181-.145.458-.77 0-1.18l-1.18-1.191c-.194-.216-.771-.398-1.165 0l-.52.521s-.605-.288-.755-.329v-.727c.022-.35-.276-.823-.835-.821h-1.654c-.653 0-.849.582-.839.821v.727c-.207.074-.752.329-.752.329l-.521-.521c-.179-.201-.742-.404-1.164 0l-1.19 1.191c-.44.468-.187.987 0 1.18l.52.521s-.259.471-.316.738h-.724c-.438-.021-.858.349-.835.836v1.588h.835v-1.588h1.37s.459-1.385.727-1.753l-.932-.959 1.165-1.15.958.932c.726-.408 1.442-.639 1.74-.728v-1.369h1.615v1.369s1.111.373 1.742.728l.987-.932 1.146 1.15-.958.959c.451.761.739 1.753.739 1.753h1.369v1.588h.837v-1.588c.004-.248-.212-.844-.875-.836zm-3.589 2.383h-4.453c.002-1.428.951-2.398 2.225-2.398 1.276 0 2.226.962 2.228 2.398zm1.244-13.147l-2.863-3.591c-.11-.14-.277-.221-.456-.221h-.002c-.179 0-.347.083-.458.223l-2.851 3.589c-.2.253-.158.623.095.824.254.202.622.16.824-.093l1.791-2.256v4.779c0 .323.263.586.586.586s.585-.264.585-.586v-4.82l1.832 2.298c.116.145.599.317.824.093.224-.225.295-.572.093-.825z"/></svg>