<svg id="Group_3012" data-name="Group 3012" xmlns="http://www.w3.org/2000/svg" width="15.33" height="18.035" viewBox="0 0 15.33 18.035">
  <path id="Path_1540" data-name="Path 1540" d="M1.152,16.883H7.915v1.152H1.2a1.264,1.264,0,0,1-.852-.3,1.182,1.182,0,0,1-.351-.8V4.509L4.509,0h7.915a.934.934,0,0,1,.8.351,1.138,1.138,0,0,1,.3.8v5.11H12.374V1.152H5.611V4.559a.934.934,0,0,1-.351.8,1.138,1.138,0,0,1-.8.3H1.052V16.883Z" fill="#0a6ed1"/>
  <path id="Path_1541" data-name="Path 1541" d="M26.109,25.82H21.6V24.668h1.152V20.109H21.6V18.956h3.356v5.661h1.152v1.2Zm-2.254-7.965a1.058,1.058,0,0,1-.8-.3,1.02,1.02,0,0,1-.3-.751,1.264,1.264,0,0,1,.3-.852,1.182,1.182,0,0,1,.8-.351,1.067,1.067,0,0,1,.8.351,1.209,1.209,0,0,1,.351.852.9.9,0,0,1-.351.751A1.228,1.228,0,0,1,23.854,17.854Z" transform="translate(-10.779 -7.785)" fill="#0a6ed1"/>
</svg>
