<?xml version="1.0" encoding="iso-8859-1"?>
<!-- Generator: Adobe Illustrator 23.0.2, SVG Export Plug-In . SVG Version: 6.00 Build 0)  -->
<svg version="1.0" id="Layer_1" xmlns="http://www.w3.org/2000/svg" xmlns:xlink="http://www.w3.org/1999/xlink" x="0px" y="0px"
	 width="24px" height="17.7px" viewBox="0 0 24 17.7" style="enable-background:new 0 0 24 17.7;" xml:space="preserve">
<path id="Groupe_3248" d="M22.5,0c0.4,0,0.8,0.1,1.1,0.4C23.9,0.7,24,1.1,24,1.5v11.7c0,0.4-0.1,0.8-0.4,1.1s-0.7,0.5-1.1,0.5h-21
	c-0.4,0-0.8-0.2-1.1-0.5C0.2,13.9,0,13.5,0,13.1V1.5c0-0.4,0.1-0.8,0.5-1.1C0.8,0.1,1.1,0,1.5,0H22.5z M22.5,1.5h-21v11.7h21V1.5z
	 M13.9,16.1H10c-0.4,0-0.8,0.3-0.8,0.8s0.3,0.8,0.8,0.8l0,0h3.9c0.4,0,0.8-0.3,0.8-0.8S14.4,16.1,13.9,16.1L13.9,16.1z"/>
</svg>
