<?xml version="1.0" encoding="UTF-8"?>
<svg width="28px" height="28px" viewBox="0 0 28 28" version="1.1" xmlns="http://www.w3.org/2000/svg" xmlns:xlink="http://www.w3.org/1999/xlink">
    <!-- Generator: Sketch 63.1 (92452) - https://sketch.com -->
    <title>Artboard</title>
    <desc>Created with Sketch.</desc>
    <defs>
        <polygon id="path-1" points="0 0 15 0 15 15 0 15"></polygon>
    </defs>
    <g id="Artboard" stroke="none" stroke-width="1" fill="none" fill-rule="evenodd">
        <g id="Group-3" transform="translate(6.000000, 7.000000)">
            <mask id="mask-2" fill="white">
                <use xlink:href="#path-1"></use>
            </mask>
            <g id="Clip-2"></g>
            <path d="M10.32375,8.44084005 C10.8234375,8.44084005 11.265,8.26457904 11.6475,7.88205513 C12.0290625,7.50046878 12.20625,7.05887868 12.20625,6.55915995 C12.20625,6.05850366 12.0290625,5.61785112 11.6475,5.23532721 C11.265,4.8528033 10.8234375,4.67654228 10.32375,4.67654228 C9.8240625,4.67654228 9.3825,4.8528033 9,5.23532721 C8.6184375,5.61785112 8.44125,6.05850366 8.44125,6.55915995 C8.44125,7.05887868 8.6184375,7.50046878 9,7.88205513 C9.3534375,8.23551472 9.795,8.44084005 10.32375,8.44084005 L10.32375,8.44084005 Z M13.1175,6.55915995 C13.1175,7.35233452 12.853125,8.00018751 12.294375,8.55897244 C11.735625,9.11775736 11.0878125,9.38214888 10.2946875,9.38214888 C9.500625,9.38214888 8.85375,9.11775736 8.2940625,8.55897244 C7.7353125,8.00018751 7.4709375,7.35233452 7.4709375,6.55915995 C7.4709375,5.76504782 7.7353125,5.11719482 8.2940625,4.5584099 C8.85375,3.99962498 9.500625,3.73523345 10.2946875,3.73523345 C11.0878125,3.73523345 11.735625,3.99962498 12.294375,4.5584099 C12.853125,5.11719482 13.1175,5.76504782 13.1175,6.55915995 L13.1175,6.55915995 Z M14.05875,13.1173823 C14.05875,12.3242078 13.794375,11.6763548 13.2346875,11.1175698 C12.676875,10.5587849 12.0290625,10.2943934 11.2359375,10.2943934 L9.3534375,10.2943934 C8.559375,10.2943934 7.9125,10.5587849 7.35375,11.1175698 C6.7940625,11.6763548 6.5296875,12.3242078 6.5296875,13.1173823 L6.5296875,14.0586912 L14.0296875,14.0586912 L14.0296875,13.1173823 L14.05875,13.1173823 Z M11.265,9.38214888 C11.7646875,9.38214888 12.264375,9.47121695 12.7059375,9.67654228 C13.1765625,9.88280518 13.5590625,10.1471967 13.9115625,10.4706544 C14.265,10.824114 14.529375,11.2057004 14.7065625,11.6472905 C14.9128125,12.0888806 15,12.5885993 15,13.1173823 L15,15 L5.6175,15 L5.6175,13.1173823 C5.6175,12.5885993 5.7065625,12.0888806 5.911875,11.6472905 C6.118125,11.2057004 6.3825,10.7941121 6.7059375,10.4706544 C7.059375,10.1181324 7.4409375,9.8528033 7.9125,9.67654228 C8.383125,9.47121695 8.85375,9.38214888 9.3534375,9.38214888 L10.2946875,9.38214888 L11.265,9.38214888 Z M6.7940625,9.23588974 C6.5296875,9.38214888 6.264375,9.61747609 6,9.88280518 C5.6175,9.61747609 5.2940625,9.29401838 5.05875,8.88243015 C4.8234375,8.46990437 4.70625,8.00018751 4.70625,7.50046878 C4.70625,6.79448716 4.9415625,6.17569848 5.3821875,5.67597975 C5.82375,5.1471967 6.4125,4.8528033 7.0884375,4.73467092 C6.883125,5.08813051 6.735,5.47065442 6.6478125,5.85317832 C6.3534375,5.99943746 6.118125,6.23476467 5.941875,6.52915807 C5.7646875,6.82355147 5.6765625,7.14700919 5.6765625,7.5295331 C5.6765625,7.912057 5.79375,8.26457904 6,8.55897244 C6.1771875,8.85242828 6.4415625,9.05869117 6.7940625,9.23588974 L6.7940625,9.23588974 Z M4.588125,11.7054191 L4.8534375,11.8535533 C4.7653125,12.2060754 4.70625,12.559535 4.6771875,12.9420589 L4.1765625,13.4708419 C4.0003125,13.6480405 3.765,13.7352335 3.500625,13.7352335 C3.2353125,13.7352335 3.03,13.6480405 2.8528125,13.4708419 L1.5,12.1179449 C1.32375,11.9407463 1.235625,11.735421 1.235625,11.4700919 C1.235625,11.2057004 1.32375,10.9994375 1.5,10.824114 L2.08875,10.2353272 C2.0596875,10.0881305 2.000625,9.94187137 1.9115625,9.82373898 C1.8534375,9.67654228 1.794375,9.52934558 1.7653125,9.38214888 L0.94125,9.38214888 C0.676875,9.38214888 0.4415625,9.29401838 0.2653125,9.11775736 C0.0890625,8.94055878 0,8.70523158 0,8.46990437 L0,6.58822426 C0,6.32383274 0.0890625,6.08850553 0.2653125,5.91130696 C0.4415625,5.73504594 0.676875,5.64691543 0.94125,5.64691543 L1.7653125,5.64691543 C1.794375,5.49971873 1.8534375,5.35252203 1.9115625,5.20532533 C1.970625,5.05906619 2.0296875,4.94093381 2.08875,4.79373711 L1.5,4.20588787 C1.32375,3.99962498 1.235625,3.79336209 1.235625,3.52897056 C1.235625,3.26457904 1.32375,3.05831614 1.5,2.88205513 L2.8528125,1.52915807 C3.03,1.3519595 3.2353125,1.26382899 3.500625,1.26382899 C3.765,1.26382899 4.0003125,1.3519595 4.1765625,1.52915807 L4.7653125,2.11700731 C4.9125,2.05794112 5.0296875,1.99981249 5.176875,1.9407463 C5.3240625,1.88168011 5.47125,1.82261391 5.6175,1.7935496 L5.6175,0.940371273 C5.6175,0.675979749 5.7065625,0.440652541 5.8828125,0.264391524 C6.0590625,0.0871929496 6.294375,0 6.55875,0 L8.44125,0 C8.705625,0 8.9409375,0.0871929496 9.118125,0.264391524 C9.294375,0.440652541 9.3825,0.675979749 9.3825,0.940371273 L9.3825,1.76448528 C9.5296875,1.7935496 9.676875,1.85261579 9.8240625,1.91168198 C9.97125,1.97074817 10.0884375,2.0288768 10.235625,2.087943 L10.8234375,1.50009376 C11.000625,1.32289518 11.2359375,1.23476467 11.5003125,1.23476467 C11.7646875,1.23476467 11.9709375,1.32289518 12.1471875,1.50009376 L13.5009375,2.85299081 C13.67625,3.02925183 13.7653125,3.23457716 13.7653125,3.49990624 C13.7653125,3.76429777 13.67625,3.97056066 13.5009375,4.17588599 L13.32375,4.32308269 C13.2346875,4.17588599 13.1175,4.05869117 13.0303125,3.97056066 C12.9121875,3.85242828 12.8240625,3.76429777 12.7059375,3.67616726 L12.853125,3.52897056 L11.529375,2.20607538 L10.9415625,2.79392462 L10.8525,2.88205513 C10.7653125,2.85299081 10.6771875,2.85299081 10.6171875,2.85299081 L10.381875,2.85299081 L10.0303125,2.85299081 C9.9121875,2.85299081 9.795,2.88205513 9.676875,2.88205513 C9.58875,2.85299081 9.500625,2.82298894 9.4115625,2.79392462 C9.324375,2.76392275 9.2353125,2.73485843 9.1471875,2.70579411 L8.5003125,2.4704669 L8.5003125,1.76448528 L8.5003125,0.940371273 L6.6178125,0.940371273 L6.6178125,1.76448528 L6.6178125,2.44140259 L5.9709375,2.6767298 C5.8528125,2.70579411 5.735625,2.76392275 5.6175,2.79392462 C5.5003125,2.85299081 5.3821875,2.88205513 5.265,2.94112132 L4.6771875,3.23457716 L4.1765625,2.76392275 L3.58875,2.1760735 L2.2059375,3.49990624 L2.7946875,4.08775548 L3.2653125,4.58841178 L2.9709375,5.17626102 C2.911875,5.2943934 2.8528125,5.41158822 2.82375,5.52972061 C2.7646875,5.64691543 2.735625,5.76504782 2.7065625,5.88224264 L2.47125,6.52915807 L1.7653125,6.52915807 L0.94125,6.52915807 L0.94125,8.41177574 L1.7653125,8.41177574 L2.44125,8.41177574 L2.6765625,9.05869117 C2.7065625,9.17682355 2.7646875,9.29401838 2.7946875,9.41215076 C2.8528125,9.52934558 2.8828125,9.64747797 2.9409375,9.76467279 L3.2353125,10.3825239 L2.7946875,10.8822426 L2.2059375,11.4700919 L3.5296875,12.7948622 L4.1175,12.2060754 L4.588125,11.7054191 Z" id="Fill-1" fill="#D1E8FF" mask="url(#mask-2)"></path>
        </g>
    </g>
</svg>